{"accessors" : [{"bufferView" : 0, "byteOffset" : 0, "componentType" : 5123, "count" : 3192, "type" : "SCALAR", "max" : [3191], "min" : [0]}, {"bufferView" : 1, "byteOffset" : 0, "componentType" : 5126, "count" : 3192, "type" : "VEC3", "max" : [76587.03125, 76591.03125, 76595.03125], "min" : [3.028439998626709, 7.028439998626709, 11.028440475463867]}, {"bufferView" : 1, "byteOffset" : 12, "componentType" : 5126, "count" : 3192, "type" : "VEC3", "max" : [76599.03125, 76603.03125, 76607.03125], "min" : [15.028440475463867, 19.028440475463867, 23.028440475463867]}], "asset" : {"generator" : "Aspose.3D 20.8", "version" : "2.0"}, "buffers" : [{"uri" : "buffer.bin", "byteLength" : 83000}], "bufferViews" : [{"buffer" : 0, "byteOffset" : 0, "byteLength" : 6384, "target" : 34963}, {"buffer" : 0, "byteOffset" : 6388, "byteLength" : 76608, "byteStride" : 24, "target" : 34962}], "meshes" : [{"primitives" : [{"attributes" : {"POSITION" : 1, "NORMAL" : 2}, "indices" : 0, "mode" : 4}]}], "nodes" : [{"mesh" : 0, "name" : "OpenSCAD_Model"}], "scene" : 0, "scenes" : [{"nodes" : [0]}]}